<mxfile host="app.diagrams.net" modified="2021-07-18T16:10:02.121Z" agent="5.0 (Windows NT 10.0; Win64; x64) AppleWebKit/537.36 (KHTML, like Gecko) Chrome/91.0.4472.124 Safari/537.36" etag="EV9ihHi7T5vZH64JBpTp" version="14.9.0" type="github">
  <diagram id="XEkHLmezWZI4c1WCaYPN" name="Page-1">
    <mxGraphModel dx="782" dy="1536" grid="1" gridSize="10" guides="1" tooltips="1" connect="1" arrows="1" fold="1" page="1" pageScale="1" pageWidth="850" pageHeight="1100" math="0" shadow="0">
      <root>
        <mxCell id="0" />
        <mxCell id="1" parent="0" />
        <mxCell id="NAQCBL6RXrsDhcxio9aU-1" value="Amazon CloudWatch" style="outlineConnect=0;fontColor=#232F3E;gradientColor=none;strokeColor=#ffffff;fillColor=#232F3E;dashed=0;verticalLabelPosition=middle;verticalAlign=bottom;align=center;html=1;whiteSpace=wrap;fontSize=10;fontStyle=1;spacing=3;shape=mxgraph.aws4.productIcon;prIcon=mxgraph.aws4.cloudwatch;" parent="1" vertex="1">
          <mxGeometry x="10" y="170" width="80" height="110" as="geometry" />
        </mxCell>
        <mxCell id="NAQCBL6RXrsDhcxio9aU-3" value="AWS Lambda" style="outlineConnect=0;fontColor=#232F3E;gradientColor=none;strokeColor=#ffffff;fillColor=#232F3E;dashed=0;verticalLabelPosition=middle;verticalAlign=bottom;align=center;html=1;whiteSpace=wrap;fontSize=10;fontStyle=1;spacing=3;shape=mxgraph.aws4.productIcon;prIcon=mxgraph.aws4.lambda;" parent="1" vertex="1">
          <mxGeometry x="200" y="10" width="80" height="100" as="geometry" />
        </mxCell>
        <mxCell id="NAQCBL6RXrsDhcxio9aU-4" value="AWS Lambda" style="outlineConnect=0;fontColor=#232F3E;gradientColor=none;strokeColor=#ffffff;fillColor=#232F3E;dashed=0;verticalLabelPosition=middle;verticalAlign=bottom;align=center;html=1;whiteSpace=wrap;fontSize=10;fontStyle=1;spacing=3;shape=mxgraph.aws4.productIcon;prIcon=mxgraph.aws4.lambda;" parent="1" vertex="1">
          <mxGeometry x="200" y="370" width="80" height="100" as="geometry" />
        </mxCell>
        <mxCell id="NAQCBL6RXrsDhcxio9aU-5" value="Amazon DynamoDB" style="outlineConnect=0;fontColor=#232F3E;gradientColor=none;strokeColor=#ffffff;fillColor=#232F3E;dashed=0;verticalLabelPosition=middle;verticalAlign=bottom;align=center;html=1;whiteSpace=wrap;fontSize=10;fontStyle=1;spacing=3;shape=mxgraph.aws4.productIcon;prIcon=mxgraph.aws4.dynamodb;" parent="1" vertex="1">
          <mxGeometry x="200" y="190" width="80" height="110" as="geometry" />
        </mxCell>
        <mxCell id="NAQCBL6RXrsDhcxio9aU-13" value="Amazon SQS" style="outlineConnect=0;fontColor=#232F3E;gradientColor=none;strokeColor=#ffffff;fillColor=#232F3E;dashed=0;verticalLabelPosition=middle;verticalAlign=bottom;align=center;html=1;whiteSpace=wrap;fontSize=10;fontStyle=1;spacing=3;shape=mxgraph.aws4.productIcon;prIcon=mxgraph.aws4.sqs;" parent="1" vertex="1">
          <mxGeometry x="400" y="280" width="80" height="100" as="geometry" />
        </mxCell>
        <mxCell id="NAQCBL6RXrsDhcxio9aU-14" value="Amazon SQS" style="outlineConnect=0;fontColor=#232F3E;gradientColor=none;strokeColor=#ffffff;fillColor=#232F3E;dashed=0;verticalLabelPosition=middle;verticalAlign=bottom;align=center;html=1;whiteSpace=wrap;fontSize=10;fontStyle=1;spacing=3;shape=mxgraph.aws4.productIcon;prIcon=mxgraph.aws4.sqs;" parent="1" vertex="1">
          <mxGeometry x="400" y="480" width="80" height="100" as="geometry" />
        </mxCell>
        <mxCell id="NAQCBL6RXrsDhcxio9aU-15" value="Amazon EC2" style="outlineConnect=0;fontColor=#232F3E;gradientColor=none;strokeColor=#ffffff;fillColor=#232F3E;dashed=0;verticalLabelPosition=middle;verticalAlign=bottom;align=center;html=1;whiteSpace=wrap;fontSize=10;fontStyle=1;spacing=3;shape=mxgraph.aws4.productIcon;prIcon=mxgraph.aws4.ec2;" parent="1" vertex="1">
          <mxGeometry x="730" y="270" width="80" height="100" as="geometry" />
        </mxCell>
        <mxCell id="NAQCBL6RXrsDhcxio9aU-16" value="" style="html=1;dashed=0;whitespace=wrap;fillColor=#2875E2;strokeColor=#ffffff;points=[[0.005,0.63,0],[0.1,0.2,0],[0.9,0.2,0],[0.5,0,0],[0.995,0.63,0],[0.72,0.99,0],[0.5,1,0],[0.28,0.99,0]];shape=mxgraph.kubernetes.icon;prIcon=api" parent="1" vertex="1">
          <mxGeometry x="1140" y="72" width="50" height="48" as="geometry" />
        </mxCell>
        <mxCell id="NAQCBL6RXrsDhcxio9aU-17" value="AWS Direct Connect" style="outlineConnect=0;fontColor=#232F3E;gradientColor=none;strokeColor=#ffffff;fillColor=#232F3E;dashed=0;verticalLabelPosition=middle;verticalAlign=bottom;align=center;html=1;whiteSpace=wrap;fontSize=10;fontStyle=1;spacing=3;shape=mxgraph.aws4.productIcon;prIcon=mxgraph.aws4.direct_connect;" parent="1" vertex="1">
          <mxGeometry x="910" y="110" width="80" height="110" as="geometry" />
        </mxCell>
        <mxCell id="NAQCBL6RXrsDhcxio9aU-19" value="" style="shape=image;verticalLabelPosition=bottom;labelBackgroundColor=#ffffff;verticalAlign=top;aspect=fixed;imageAspect=0;image=data:image/png,iVBORw0KGgoAAAANSUhEUgAAANIAAACwCAYAAAB6pTATAAAgAElEQVR4Ae3dd7RdRfUH8Mg//qHLvuy9ImIXe0EsCNhBwSgKaShFqQoCIRBCChAglJAAgVCFUEIEEogJBAnFKMUCicASlSgoKhawO7/1GX/jury8c9/Lfefde999+6x11rn3lCnf2d/Ze/aZM3tMii0QCASGjMCYIacQCQQCgUAKIoUQBAI1IBBEqgHESCIQCCKFDAQCNSAQRKoBxEgiEAgihQwEAjUgEESqAcRIIhAIIoUMBAI1IBBEqgHESCIQCCKFDAQCNSAQRKoBxEgiEAgihQwEAjUgEESqAcRIIhAIIoUMBAI1IBBEqgHESCIQCCKFDAQCNSAQRKoBxEgiEAgihQwEAjUgEESqAcRIIhAIIoUMBAI1IBBEqgHESCIQCCKFDAQCNSAQRKoBxEgiEAgihQwEAjUgEESqAcRIIhAIIoUMBAI1IBBEqgHESCIQCCKFDAQCNSAQRKoBxEgiEAgihQwEAjUgEESqAcRIIhAIIoUMBAI1IBBEqgHESCIQCCKFDAQCNSAQRKoBxEgiEAgihQwEAjUgEESqAcRIIhAIIoUMBAI1IBBEqgHESCIQCCKFDAQCNSAQRKoBxEgiEAgihQwEAjUgMCgi/etf/0p//OMf07p169LNN9+cVqxYkZYuXRp7YNDVMrB8+fJ0/fXXpzvuuCP9+te/Tv/4xz/Sf/7znxpos2ESlUSS6cMPP5zuvffedMstt6Qrr7wyLViwIB133HFp2rRpacqUKemwww5rursn9sCgEzJANqdOnZpmzZqV5s6dmy6++OJMqjvvvDM9+OCD6W9/+1v697//vSEjWjxTSaTf/e536aabbspE2WqrrdKmm26attlmmzR+/Ph0wAEHpEMPPbQpiQYiWVxv3gkFPkPH58ADD0x77rln2mGHHdIWW2yRNt9887TbbrulRYsWpfXr16e///3vLdJmw8c2IBITbs2aNenYY49NkyZNSvvss0+aPHly1kQXXnhhWrZsWWb2jTfemImGbLEHBt0oAzfccEMehixevDjNmzcva6hvfOMbaY899kj77bdftrJ+8YtfbMiKFs48hkh/+MMf0ve///00c+bMtP3226ftttsuzZkzJxPrT3/6U62qsIWyxiOBQMsIPProo+m+++5LF110UdZKW265Zdp3333TkiVL0gMPPJDHTy0nnlJ6DJFWr16dxzTvfve7s+nm/0MPPfQ/e3K4BmpDqUA8GwgMBgHjoX/+85/pL3/5S/rxj3+cFi5cmLbeeus0ceLExNL6/e9/P5hkKu/JRHrkkUfS2rVr01FHHZXGjh2bj6tWrUrGSTx2sQUCvYTAn//85+yBPu2007KZt+uuu6aVK1em3/zmNy1XMxPpV7/6VTrzzDOTBMeNG5d++MMfJqZcbIFAryLAK80lPnv27LTtttum6dOnp+9973stVzcTiZ/94x//eLYZv/3tb2cS1ekabLl08WAgMEwIGKYw9fgEONY++tGPpjPOOKPl3MbwWhiAfeQjH0knn3xy+uUvf5kzaDnFeDAQGEEIGL5cd9112UV+5JFHph/84ActlX6MN7/GRl/84hfTVVdd1VIi8VAgMJIRoEy4w7nGKZNWtjHnnHNOHnCZsXD77be3kkY8EwiMaARopfPOOy9985vfTF/60pdaqssY9uGOO+6Y/enMutgCgdGGAJc4R8MhhxyS3v72t7dU/TEHH3xwHh/deuut4alrCcJ4aKQjwIPHc23a23Of+9yWqjPGFKD3ve99+a0vL0ZsgcBoQ4CH2iRW8xsf//jHt1T9MV/96leTmQz333//sE0xb6lk8VAg0CYEuMJNPECkTTbZpKVcx+y1117pXe96V1ZtLaUQDwUCIxwBRLIj0uMe97iWahNEagm2eKiXEAgi9VJrRl06hkAQqWPQR8a9hEAQqZdaM+rSMQSCSB2DPjLuJQSCSL3UmlGXjiEQROoY9JFxLyEQROql1oy6dAyBIFLHoI+MewmBIFIvtWbUpWMIBJE6Bn1k3EsIBJF6qTWjLh1DIIjUMegj415CIIjUS60ZdekYAkGkjkEfGfcSAkGkXmrNqEvHEAgidQz6yLiXEAgi9VJrRl06hkAQqWPQR8a9hEAQqZdaM+rSMQSCSB2DPjLuJQSCSL3UmlGXjiEQROoY9JFxLyHQcSJZmdUKlfaI7Pdf0bJqp2jZArXBJbbhR0AAcQucWna4lQB5HSeSCoh6ZrcQeWwpk+e3v/1tjnooyG9sw4+AdevPOuusHFHiRz/60UZn2BEiiSWzfPnyHCrQKq3iKtktfXz88cfn0DCio4/W7ac//Wlu0F122SVdfPHFOVq2huqFzWLzOgl1vPPOO9Nf//rXrqjW0qVL0/7775/DsqxYsWKjy9RWIgERQS699NK0995754jQ733ve/Nyx+985zvTFltskc9NmzYt3XzzzRnk0Rg+U/zdk046KX3wgx9MCxYsyGZerxCJ1SGGlijg4moNNRL4Rkt8xQOLFi1Kn//853MM5Msvv7zirurTbSXSww8/nG644Yb0uc99Lm222WZp8uTJadmyZTk6tHDrc+fOzeEDn/3sZ6fDDz981IbQJGziTN14442J9i6NVN2MI+fKQw89lLXs1772tfTlL38517MbSt8VRPrYxz42qEX0f/aznyUxNj/0oQ/leEribhobUe+PPPJIuuuuu9KJJ56YnvGMZ6Ttt98+Ay4Mux6aFrvkkkvSZZddls4999x0xBFHZLLNmzcvISGSDrTJ75RTTkmLFy9OZ599dg6gKzDU6aefnoXWeI3DQ/Q1BJcXgAXYPeGEE/Iz8rnvvvvSd77znZwWwtsvuOCCXH51ISxXXHFFmjNnTk5HeWfNmpU7DlHdVq9enZgPosDDQ5S3888/Pz/PubB+/fp83bVVq1ZljWQQrEzSYQIfdNBBqbHu8oXvNddck0Mvfv3rX08zZ87Mdfj5z3+e8UVQ9v+3vvWtNHXq1ByqUdmVSVj7viF5tAlslyxZkhYuXJjzdxTmVEwsY4rbbrstPfroo5nsRduIJ6ycyqg9YcUSufvuu3OsYRHt3vSmN6XNN988l0E6V155ZcaZKbtmzZpcXvmvW7cup+E8cxA+tJgxjbSvvfba7BzQJjDVGQs/KX/y8pOf/CTnrW6eY8IZPsCSRtRG5EL7Nmok+dx7771Z7uQjiBiTtGornd2QFtF/61vfOiCRZCTyOdJttdVWOfo5gWvcCDEhe+1rX5vTo7EINRIZS02YMCEdeOCBOSraTjvtlN7//venT3ziE9n8AfhAm8iC8hbPad99903jx49P22yzTZIWYiofohBIArbbbrtlVT9u3Lg8hiM8rlH9GkuP+tnPfjaXYeedd84CSoPcc889uZwidCCD54wBxZDSWIJRCRMqDc+/5S1vyeESCan8NT6BUD9kIwAaHuG22267tOWWW+Y8PU/DI4EOyfMactKkSfm+T3/607muSI1MvFKEaOLEibkdBM9mHSijcjO9GzfYi1DPDIfz9OnTcxk8IyqdshNAAobIBB3G7je+E+XePQgFW23rfvV6wQtekJ73vOfle6ZMmZLrC+899tgjC7c0dSjaXsigXXfdNXcK8NHh6ty0nY5R2XVW5EW+W2+9dfrMZz6T644EgiMrH7K5h7zqaORFBnSC6laI5L+6zJ8/P+25555Z7uCvM6va2kYkYx2myqtf/eoMnkLSAI2bwhAiYBB4Df7ggw/mnoOGetvb3pYFVK+iJySQH/jAB7KQXn311Y1J9fubIL70pS/NwnPaaadlISRkX/jCFzK4hFcj6TmZHu94xzvSm9/85pwnDabH0zPtvvvu6T3veU9uZKHhaS7/DzjggOxEoUGR/sUvfnEuI2HUcyKr+17zmtdkgeNwoUE0lsZHRsKjbjNmzEgve9nLsuAjpkYfO3ZsFmRCqZy0BQLBUbkIN9LrvYupDEvlWrlyZe7pdVI77LBDxrSkoby0Sd/xKGE2lhH2/uUvf3nu5WkXPThy6BiM45QPSWkimkZHpa2lC3NtSevASjmVB4kRTfDutWvX5jrTIkKoqiehRwCYIRzh17mprzLoCJVLRwMvZNNJH3300bmuziPmG97whkxe9Ss4Pv3pT8/PIrC2gwOrpBBJZ0A+ySqs1IscNns9UwuRVH6g+EgaSY/0ile8In3yk5/MwPbnrweqnp75V4hEiOUBeABpNMKjcYAOQIDoQQkmU6TsGp13yHsZ2uxVr3pVFgLnS69HaPVuhJXA641oQOnqCQmhRkByeSI1oWUWMJP08pwlTBYNQGA8Jy8mG21JMJiJ8mHSKKd6SFevSdMQLr0rwWA+ISLNZbykx3QPoWTSffe7383akelL2zDP3A/bU089NZOJoCirPPWyzLptt902azRERxImkp4WPoShcYOP+n3qU5/KgkyA3Ss/9VIe2lSb3XTTTVkbIioy0xAEUFvqPJjQ119/fTaX1IWmIrgIrw4EFSYwhCUM4UW7Ioxz6sLc4oAhC6KIK4f7EB1xkE9a2tx95A2x/dd+X/nKV7I2RDjlgTdZgp/0ybEOQvowouVZIQO9z6uFSIMJNCajW265JffwGoCKp6YbN/dobKaWHhpQGhORaA0NBOyy6ekJv3s1mgbWmzBvyi5Uu56fvY1IGhoBAFs2QiZ9ppDxUyESc4zZU0xQZDC2IIzA9pug6zWZO0yaRiK97nWvywJvfKCuhJ/JQfiQi92ufgSBsDLZ1KEvkZh2NC7NJV/CoPdm9mhkYwr1ftaznpWFTpnshJcg6lWNFxDXfepKOOGLdDoKdexr2hUi6cRgLC8bwdMRIYMeX49OsxM8GhxupQw0u/xgREshoo6n9P4E2UZQdRiEHm7qpiMgKzoVpiWvLgyZyn4jChnQnuK2slCYcDptx9JxI6cOkiaHnQ6OHMG1bNoAeRDyiU98YiabOiD6YLa2EglJNAqXt56Kbd+4UZ1sfh49vTOACOBgiaQhPEP4y06wmWTNiKTX1fiEnCarIhJBYmMTQg3MHNAASKxn1Dh6eODTSIMlElNM3rRwf0QiGARNj6qsCMvMJcTGCrQxx8Izn/nMrKGVR7loHL/VieZDXHjCmJAgP1Izj53r++5uY4hk3KjOzGFkkL9dedWvkKiKSARR+yM67VM6LB0fEugEX//61+dy63RodWkyFWfPnp2JpG1o1oIXLUkjMZl1pgMRiTaX39Oe9rT0nOc8J3dEOv/BbG0jksIQdO9H9G7UvQYmOHoPNqyeldo3EKWmAcgjNBgiabTi4aPemQZ2wqcnJkQaA7AEEbBMAOTQ8334wx/OwHl/VUUk9xNOmotpR0gQx/1l3EJgabuNJZLeXRn6IxJNwWwlhMZvTBKeO2aIMQgtijDPf/7zc0dF+5TyILX3NsYWyKjzolld15szZ4wFmDbON24bQyQCTfg33XTTrDlpDiYfLIyVlBtRzdQwFtWhwtF1nZyyIQBNRFvRzoRah6oNjWnJjf9kx/NwVy/1Z9YaDyIPTeMZjghjYmMy7UJzNtNI0tRJ0qA0ufEf7YewZKvZ1lYiGRMRbkIADKYFgDQoMLyILSAC28AbAQZLpGYVdQ2RXvjCF+YG1IMjArBpA6AhCWGqIhKyE0zOhje+8Y1Z63mGR0f5CY8GrJtItAg3OCeLneZTF2M4vbB8dUKEj3miY0Am5ha3Mo1sbEGIDe7hrcyu0cS0Eo06FCLprHRmcGGaa1fplzIwV5FYh6Bs8iUDLAZ1Y+oiU3EwMFNf+cpXZlLqgHV8OleOBxaN9tOxkQ+dgk6IlaBj0a7HHHNM1kS0G/NV2yFzMyIVc9P9OnljS8RiIiuXdqja2kokPQ7Vq+E1Nk+MXvSpT31q3gHHnjdm0YNQ9QrYjEjF46URB9oIH5VN4JhG7GF56/mMtQBNO1YRSfldZ04hHlPqKU95Sn7vpYERjOBoWOO5vqYd86lxjKR+en2mTzONhAS0qPEHs8Oup2WKIAmB0ukYDzLT2Pjq5T6YKhcC0bYE4yUvecn/0lFGZra6a5vGbWM0EhLo8eXFBHvyk5+c8/ByHdY6LB0M/OTF66cc3hkac+o4jdOQjan6ohe9KLvJPaccOjBmH5yZpDoTHTP5UH9tIh111yZPetKTMkY6GtpSvnAcDJHkryzGpcgFa+OvZmZeW4lUGglYTCLmCFNP76IHMXhUeD2jHqRseiseI6ZeGZy65j6kJLxAGmhrNO04O4Bv4OvFHCHXMIRbzyNdQqon0gg2YCGT8uixStkN/HnSDNqZihpBWdWPOUbICCkzhAAgDjOnEFPZnacpmBAER748X0hZNJJyKi+89OS0SjHZmEcEmWZ0D+1eMFUuWLnXWEaP6xrBbKy78jRuzGodGm0A4+JlVRfEVWZ1ZEp5VjkN8JVb2pwEcNYxqgdtBF/pEG55IwpzznX5wVpZpQGPQj55MBF1qmRB/sU5UsjpfnWXr/rx8MIRnvLlJGEWKw8tp13Kpp5FxrShtOFFBnjumHf+V20dIVJjYRAGwCrZt0dsvK+O34hE+3BIMMGYBfJvJV8NQ3g1sPJLC5jDucmj5Eno+ttKufTSMPW/b7kInmsEupW695dv4zlpSluHqWMoQtZ4j9/IR2CVsY5NOnCRr/q1o01KuUsdhzSzYTDu75Jh3yMwy963wfveO9T/fYkkP3m3km8BrrHsraSzMXVqzLMqr3IPoSp163uv/43l3pgyDObekn6zMkinlLVv+QaTR3/3lPQGyre/Z4d6ruTdMSINtQIb87wBNQ+OQTDVHlsgUBcCo4pIzDk2L2cC1R9bIFAXAqOKSGxmA0xHpk1sgUBdCIwqItUFWqQTCPRFIIjUF5H43y8CBvA8nLyB3NNc9vfec0/X79zaxsPD7VkNIvUrNnGyLwLcysaW316yJM054YQ0c8aMNP2oo7p6P2ratGQ/4/TT03XXXpvHxQR+OLYg0nCg2mNp0kR69gt9MmK2++GHp8mHHpoOPeSQEbEj/Gnz56fvXn99+tX69cPSOkGkYYG1txJlzpn5QQuNFPL0LefUI45I8+fNy5+oDEfrBJGGA9UeS9N4iEnHTOoroCPp/2GTJ+fvqIajeYJIw4Fqj6XJrLt88eIRTySkv3blymFpnSDSsMDaW4kGkQZuzyDSwBiN+juCSAOLQBBpYIxG/R1VRDrm6KPzpwrGT0uvuqpyv+zSS/PnFL6gNU7htDh74cLK+0ta37rggnTySSelw6dMyWMz3jefXOQPHJvk5/l5p57a73guTLtRL86dA6CKSKfOnZu+s3x5/gbLd1dVu++kfEfkOyqksGqSxVOq7i/nffWLTEdOnZpJwfUuLd8FlXuqjr7L6s8REkTqnByN+pyriLTgjDPyV7e+OTLzoWr3fdCiiy5KNJh3UAjow86q+8t5X9I2OjkQkCu+XG92XH7NNUGkUS+5XQZAFZHKV8Gm4PgKtWq/5+678xevs2bOzEQ66cQT8xfIVfeX8/kr6gsvTNOOPPK/Gun44/PsinK92dEXzKGRukyQRntxqoh03OzZ6YLzz8+f1XthW7X7JP2Uk0/OhJhy2GF5NVSfqFfdX877LN5LVFoMKYytLEVQrjc7+sw8iDTaJbfL6l9FJNOEEIOgmzlQtbvOyVAEuzxXdX85bzzV97mB8irP+lK15Nd4jDFSlwnXaCpOFZF40ZhpC886K517zjmVu7EUsw4xkIipxhvX7BnXaKNjjzkmkxUZeP2kNdBzrnNMNBKo/A4ijSbJ7bK6VhHJLPBLL7kk3XLzzem2W2+t3K3IhBSmGNFgs489NjsRmj3j2jVXX51XlqJlEOHoWbPyKkADPef6eeeeG0TqMjka9cWpIpLlzKxs6rN9qwFV7Q8+8EC66MILH+O1s0xW1f3lvM82uLHLHL8T58zJru9yvdkRCYsWajx2tUaycqqwGlbbjE+4e493VUQ6c8GCvD6dJcKabdb5u3jRokwk2sXL0ttvu63ZI/maybJLLr88r1OHDMxInrrBbN5vNRKo/B5OInHHG5ttsskmgyniBveMsfSw4FH9rda5wd1xYsQhUEUkq6PyyLmuE63aLTpjJgOvW34hO2dOnjxadX85b2VTXsHyQpaX0Iqr5Xqzo9kUhTyNx+EiEhJ5n2Zl1yc84QkttfEYD1t32eqZzdZHbin1eKjjCFQRicnF3DrrzDPTOWefXbn3dTYgBmdDs2dco7m8xC2eO9rM164DPec60jUSqPweLiJZFNMqwJY2tr58K9sYK5dawd+7Acu9xtZbCFQRieMAKWgaXrmqfcb06f/z2BFoxOC5q7q/nEfU8g6pPMdTWK43OxYHRSFQOQ4XkawsKxiA6BWss1a2MRawF4qQe5JWiq23EKgiEkHnueN0oJWqdp95F7OO+xv5iiaresb5uaeckj11jRpJWs2eKdd4Bgt5Go/DRSTToKypLjiAlYdb2cYgj0XTS8S7VhKJZ7oXgSoiMbMsmm/9c+uJV+3WSbDeA/c1DYMga/4/QkTVM86boGq2d/HasXyMi5o9U64JMNBIoPJ7uIhkZSUxlQR5FhyglW0MT4plgMWoEZtTtAauydh6A4EqIoXX7r/tawa6SBjCc5rhztvYyjbGQ8JviAkkZqh5TlRdkKkVOLvvmSoieckqfM36++/P68ZZO66/nWB5QWpMQyNxNJgn19+9jee4yI27y6TVE44/PnuGG++p+k2wixZqPNapkbzqsUyZcDCCkQkMLshZq1smEq0kho5IbKLG+ZYkPHitQtpdz1URiWfs/PPOy4JkoF21L1u6NJPH2ChPWp01Kwtc1f3l/OLLLsueu+JwMM7y0V653uzIU9hIoPK7TiLx1Jn57t2RUKglmFqrrZeJZE1t9qt3CzSTSHrsWx9hWWs7tpGLQBWReMa4p70oNbu7aje2oVU4DTgbEMMcuqr7y3kBo3npPIMI3kFxbpTrzY5IV8jTeKyLSALFCeMq8qSQnKKc+D8U5ZGJVMRErFCR7ESe9qJWkF8v0bzdZur5tj22kYVAFZEINkFHCtqpakc2pCveN1qJS7zq/nKeKUiLFSJ5TlrlerNjMQcbSeT3UIjkpavFMjkWfO4ucLhQreLWejE91AgnjyES7SOj008/PUeh3myzzXJGPi2WUUwhGlkkUtoqIiGQmd9XXnFFnmBqflt/u69caRKkQCbawkvT/u5tPGd+Hq2DsEhAcM29a7yn6rfxW18SDZVIpkKZvcPqEqhZDGIvYIXFZOYNVbYfQyTAy9CEQxG/qb599tknTZw4MQf9nTFjRn7v4N2TD7d8yRh7d2PAnYsINEKjcPpk3CfdnAliulbtHFEbTBHipGjyjGteq4j3euT/fyFLA5luNNBzrguo3FjW8luZN0beRGAXz5Z5ynzbZZdd8rCFFmJ5KeNg5/8N1IVuQKTyAHvx9ttvzwxGJBG1FYRnT0EM0hAt9u7GoIxtijCW40h0f5vOtjHyxhuHQMZBzDjvSo844ohsylk/ok7PdCWRqDqmnpdk3JTeL3FL+tafmlYhZIq9uzEoY5RCoHIckUQ69NCNkjfaUKR0mpEn2msdk1OLKVfnmL+SSEUzORqoMfl49hBKOHjfpMTe/RhwX5vFUNzQhUicAfPnz88rBJltXbVbUotZVhwOHBTSq7q/nGcOendUTMpp06bl2eDlerOjd1WlnI1Hzq+NkTkWFXPSHFIzOCiGOsnTyJFBEanxgfg9shCocjYw+ZCLh8w0nqq9vD8qms3Rc1X3l/OIV0iEDJ6TVrne7FgcFI0k8nsoXrvhbrUg0nAj3OH0q4hEqE0ONYA3mbRq53mjhZACGRDEmgpV95fzJrby8BW3OfKZp1euNzua19eXREGkDgvSaM++ikjMJ2PeH95xR1q3dm3l/v01a/KiJeVzCiTyHqbZM66tuu667O3zVQEScLeb7DrQc67zGAeRRrvkdln9q4g0Ep0NYdp1mXCNpuIEkdrT2jFGag/OHculikg8cSatrlixIsdnFaO1v/3qZcvyDAVOCeMk4xffJ/V3b+M5sxh8bl68hcZLPIiN91T9pi3DtOuYyETG/SFQRSQCzgVu1oOJq1U7F3bjpFUeNWSqur+c58jgmSvePs8ZX5XrzY7GY0Gk/lozznUMgSoiFUEl6APt5d5yHOj+cr3cX47l/EDHcn/fY4yROiZGkXEVkczEtkaC79B82l21+67oMZNWZ87Mk1ar7i/nmX88g+WdEBe6tJiK5Z6q43BMWh1uSYgx0nAj3OH0q4hksY8SaMx3Z1X72rVrM3H6Bhqrur+c5zbPgcZKWJeGQGPlnqpjuwON1dFEQaQ6UOziNKqItGDBgmQRR9/omFdZtZsd3TfQmPW5q+4v53O+VlqdNi2Pd0qgsXK92XF5m1daraP5gkh1oNjFaVQRiUdt5cqV+XNrZKnafcMjQkRZs4GTwML6VfeX8wKNebFaPtLjaPB5Trne7OhTib7jI/9jjNTFgtbrRasi0sa4v0/uE2gMQapc1+V8uL97XbJGWf2qiMRzZh4cZ0Czvcyxa9QQrT4nrWZ5lWtlfl5jnqGRRpngdlt1q4jUV0hHwv8w7bpNukZReYJI7WnscDa0B+eO5RJEag/0QaT24NyxXIJI7YE+iNQenDuWSxCpPdAHkdqDc8dyCSK1B/ogUntw7lguQaT2QB9Eag/OHcsliNQe6INI7cG5Y7kEkdoDfRCpPTh3LJcgUnugDyK1B+eO5RJEag/0QaT24NyxXIJI7YE+iNQenDuWy0/XrUuXXHzx/z5nGAlz6vqW8ZCDD04HHXhgji7YMSAHyDiINABAI/2yta/FgDXz+psHHdTvdz59Bbeb/hcS7b333nkVom5tjyBSt7ZMTeWy6Lylgvffb790wP77jzgiIf9+++6bQ7L6xqlbtyBSt7ZMTeUSSIxpJy7wuF13TRMnTBhR+4Tx49OECRPSHrvvnoM51wRL7ckEkWqHtITT0dQAAAC2SURBVLsSFM5EZDoBtiZNmpTGjh2bdtxxxxGz77zzzmmvvfZKgjtbUKVbtyBSt7ZMTeUSDwiZrBhk3YXx48alz+2004ghEhJZOEVQ8KEGTK4J0n6TCSL1C0tvnRShztJXhHH16tVp1apVSYDtkbBb6WjtXXcloVjrDFVZdwsHkepGNNIblQgEkUZls0el60YgiFQ3opHeqEQgiDQqmz0qXTcCQaS6EY30RiUCQaRR2exR6boR+D8jHE5pEowKMQAAAABJRU5ErkJggg==;" parent="1" vertex="1">
          <mxGeometry x="1130" y="50" width="210" height="176" as="geometry" />
        </mxCell>
        <mxCell id="NAQCBL6RXrsDhcxio9aU-20" value="" style="endArrow=classic;html=1;" parent="1" source="NAQCBL6RXrsDhcxio9aU-1" target="NAQCBL6RXrsDhcxio9aU-3" edge="1">
          <mxGeometry width="50" height="50" relative="1" as="geometry">
            <mxPoint x="140" y="150" as="sourcePoint" />
            <mxPoint x="150" y="90" as="targetPoint" />
          </mxGeometry>
        </mxCell>
        <mxCell id="NAQCBL6RXrsDhcxio9aU-21" value="" style="endArrow=classic;html=1;" parent="1" target="NAQCBL6RXrsDhcxio9aU-4" edge="1">
          <mxGeometry width="50" height="50" relative="1" as="geometry">
            <mxPoint x="90" y="230" as="sourcePoint" />
            <mxPoint x="200" y="360" as="targetPoint" />
          </mxGeometry>
        </mxCell>
        <mxCell id="NAQCBL6RXrsDhcxio9aU-22" value="Trigger Stop" style="text;html=1;align=center;verticalAlign=middle;resizable=0;points=[];autosize=1;strokeColor=none;" parent="1" vertex="1">
          <mxGeometry x="80" y="120" width="80" height="20" as="geometry" />
        </mxCell>
        <mxCell id="NAQCBL6RXrsDhcxio9aU-23" value="Trigger Start" style="text;html=1;align=center;verticalAlign=middle;resizable=0;points=[];autosize=1;strokeColor=none;" parent="1" vertex="1">
          <mxGeometry x="60" y="310" width="80" height="20" as="geometry" />
        </mxCell>
        <mxCell id="NAQCBL6RXrsDhcxio9aU-24" value="" style="endArrow=classic;startArrow=classic;html=1;" parent="1" source="NAQCBL6RXrsDhcxio9aU-5" target="NAQCBL6RXrsDhcxio9aU-3" edge="1">
          <mxGeometry width="50" height="50" relative="1" as="geometry">
            <mxPoint x="220" y="178" as="sourcePoint" />
            <mxPoint x="245" y="120" as="targetPoint" />
          </mxGeometry>
        </mxCell>
        <mxCell id="NAQCBL6RXrsDhcxio9aU-25" value="Fetch VM Details" style="text;html=1;align=center;verticalAlign=middle;resizable=0;points=[];autosize=1;strokeColor=none;" parent="1" vertex="1">
          <mxGeometry x="215" y="130" width="110" height="20" as="geometry" />
        </mxCell>
        <mxCell id="NAQCBL6RXrsDhcxio9aU-26" value="" style="endArrow=classic;startArrow=classic;html=1;" parent="1" edge="1">
          <mxGeometry width="50" height="50" relative="1" as="geometry">
            <mxPoint x="239.5" y="370" as="sourcePoint" />
            <mxPoint x="239.5" y="290" as="targetPoint" />
          </mxGeometry>
        </mxCell>
        <mxCell id="NAQCBL6RXrsDhcxio9aU-27" value="Fetch VM Details" style="text;html=1;align=center;verticalAlign=middle;resizable=0;points=[];autosize=1;strokeColor=none;" parent="1" vertex="1">
          <mxGeometry x="185" y="310" width="110" height="20" as="geometry" />
        </mxCell>
        <mxCell id="NAQCBL6RXrsDhcxio9aU-28" value="" style="endArrow=classic;html=1;" parent="1" edge="1">
          <mxGeometry width="50" height="50" relative="1" as="geometry">
            <mxPoint x="280" y="70" as="sourcePoint" />
            <mxPoint x="400" y="110" as="targetPoint" />
          </mxGeometry>
        </mxCell>
        <mxCell id="NAQCBL6RXrsDhcxio9aU-29" value="Cloud VM Stop Queue" style="text;html=1;align=center;verticalAlign=middle;resizable=0;points=[];autosize=1;strokeColor=none;" parent="1" vertex="1">
          <mxGeometry x="360" y="40" width="140" height="20" as="geometry" />
        </mxCell>
        <mxCell id="NAQCBL6RXrsDhcxio9aU-30" value="Cloud VM Start Queue" style="text;html=1;align=center;verticalAlign=middle;resizable=0;points=[];autosize=1;strokeColor=none;" parent="1" vertex="1">
          <mxGeometry x="370" y="380" width="140" height="20" as="geometry" />
        </mxCell>
        <mxCell id="NAQCBL6RXrsDhcxio9aU-31" value="" style="endArrow=classic;html=1;" parent="1" target="NAQCBL6RXrsDhcxio9aU-13" edge="1">
          <mxGeometry width="50" height="50" relative="1" as="geometry">
            <mxPoint x="300" y="400" as="sourcePoint" />
            <mxPoint x="350" y="350" as="targetPoint" />
            <Array as="points">
              <mxPoint x="280" y="410" />
              <mxPoint x="300" y="400" />
            </Array>
          </mxGeometry>
        </mxCell>
        <mxCell id="NAQCBL6RXrsDhcxio9aU-32" value="" style="endArrow=classic;html=1;" parent="1" target="NAQCBL6RXrsDhcxio9aU-38" edge="1">
          <mxGeometry width="50" height="50" relative="1" as="geometry">
            <mxPoint x="480" y="124" as="sourcePoint" />
            <mxPoint x="590" y="140" as="targetPoint" />
            <Array as="points">
              <mxPoint x="540" y="130" />
            </Array>
          </mxGeometry>
        </mxCell>
        <mxCell id="NAQCBL6RXrsDhcxio9aU-33" value="" style="endArrow=classic;html=1;" parent="1" source="NAQCBL6RXrsDhcxio9aU-13" target="NAQCBL6RXrsDhcxio9aU-37" edge="1">
          <mxGeometry width="50" height="50" relative="1" as="geometry">
            <mxPoint x="500" y="330" as="sourcePoint" />
            <mxPoint x="580" y="280" as="targetPoint" />
            <Array as="points">
              <mxPoint x="530" y="340" />
            </Array>
          </mxGeometry>
        </mxCell>
        <mxCell id="NAQCBL6RXrsDhcxio9aU-34" value="Add EC2 &lt;br&gt;Ids to Queue" style="text;html=1;align=center;verticalAlign=middle;resizable=0;points=[];autosize=1;strokeColor=none;" parent="1" vertex="1">
          <mxGeometry x="280" y="50" width="80" height="30" as="geometry" />
        </mxCell>
        <mxCell id="NAQCBL6RXrsDhcxio9aU-35" value="Add EC2 &lt;br&gt;Ids to Queue" style="text;html=1;align=center;verticalAlign=middle;resizable=0;points=[];autosize=1;strokeColor=none;" parent="1" vertex="1">
          <mxGeometry x="290" y="340" width="80" height="30" as="geometry" />
        </mxCell>
        <mxCell id="NAQCBL6RXrsDhcxio9aU-36" value="Triggers" style="text;html=1;align=center;verticalAlign=middle;resizable=0;points=[];autosize=1;strokeColor=none;" parent="1" vertex="1">
          <mxGeometry x="510" y="100" width="60" height="20" as="geometry" />
        </mxCell>
        <mxCell id="NAQCBL6RXrsDhcxio9aU-37" value="AWS Lambda" style="outlineConnect=0;fontColor=#232F3E;gradientColor=none;strokeColor=#ffffff;fillColor=#232F3E;dashed=0;verticalLabelPosition=middle;verticalAlign=bottom;align=center;html=1;whiteSpace=wrap;fontSize=10;fontStyle=1;spacing=3;shape=mxgraph.aws4.productIcon;prIcon=mxgraph.aws4.lambda;" parent="1" vertex="1">
          <mxGeometry x="590" y="330" width="80" height="100" as="geometry" />
        </mxCell>
        <mxCell id="NAQCBL6RXrsDhcxio9aU-38" value="AWS Lambda" style="outlineConnect=0;fontColor=#232F3E;gradientColor=none;strokeColor=#ffffff;fillColor=#232F3E;dashed=0;verticalLabelPosition=middle;verticalAlign=bottom;align=center;html=1;whiteSpace=wrap;fontSize=10;fontStyle=1;spacing=3;shape=mxgraph.aws4.productIcon;prIcon=mxgraph.aws4.lambda;" parent="1" vertex="1">
          <mxGeometry x="600" y="128" width="70" height="82" as="geometry" />
        </mxCell>
        <mxCell id="NAQCBL6RXrsDhcxio9aU-39" value="Triggers" style="text;html=1;align=center;verticalAlign=middle;resizable=0;points=[];autosize=1;strokeColor=none;" parent="1" vertex="1">
          <mxGeometry x="500" y="300" width="60" height="20" as="geometry" />
        </mxCell>
        <mxCell id="NAQCBL6RXrsDhcxio9aU-40" value="" style="endArrow=classic;html=1;" parent="1" source="NAQCBL6RXrsDhcxio9aU-38" target="NAQCBL6RXrsDhcxio9aU-15" edge="1">
          <mxGeometry width="50" height="50" relative="1" as="geometry">
            <mxPoint x="560" y="290" as="sourcePoint" />
            <mxPoint x="610" y="240" as="targetPoint" />
          </mxGeometry>
        </mxCell>
        <mxCell id="NAQCBL6RXrsDhcxio9aU-41" value="stop" style="text;html=1;align=center;verticalAlign=middle;resizable=0;points=[];autosize=1;strokeColor=none;" parent="1" vertex="1">
          <mxGeometry x="690" y="210" width="40" height="20" as="geometry" />
        </mxCell>
        <mxCell id="NAQCBL6RXrsDhcxio9aU-43" value="" style="endArrow=classic;html=1;" parent="1" edge="1">
          <mxGeometry width="50" height="50" relative="1" as="geometry">
            <mxPoint x="680" y="400" as="sourcePoint" />
            <mxPoint x="750" y="365" as="targetPoint" />
            <Array as="points">
              <mxPoint x="710" y="380" />
            </Array>
          </mxGeometry>
        </mxCell>
        <mxCell id="NAQCBL6RXrsDhcxio9aU-44" value="start" style="text;html=1;align=center;verticalAlign=middle;resizable=0;points=[];autosize=1;strokeColor=none;" parent="1" vertex="1">
          <mxGeometry x="690" y="380" width="40" height="20" as="geometry" />
        </mxCell>
        <mxCell id="NAQCBL6RXrsDhcxio9aU-45" value="" style="endArrow=classic;html=1;exitX=1;exitY=0.8;exitDx=0;exitDy=0;exitPerimeter=0;" parent="1" source="NAQCBL6RXrsDhcxio9aU-4" target="NAQCBL6RXrsDhcxio9aU-14" edge="1">
          <mxGeometry width="50" height="50" relative="1" as="geometry">
            <mxPoint x="290" y="450" as="sourcePoint" />
            <mxPoint x="340" y="420" as="targetPoint" />
          </mxGeometry>
        </mxCell>
        <mxCell id="NAQCBL6RXrsDhcxio9aU-46" value="OnPremise VM start Queue" style="text;html=1;align=center;verticalAlign=middle;resizable=0;points=[];autosize=1;strokeColor=none;" parent="1" vertex="1">
          <mxGeometry x="370" y="590" width="160" height="20" as="geometry" />
        </mxCell>
        <mxCell id="NAQCBL6RXrsDhcxio9aU-47" value="OnPremise VM stop Queue" style="text;html=1;align=center;verticalAlign=middle;resizable=0;points=[];autosize=1;strokeColor=none;" parent="1" vertex="1">
          <mxGeometry x="370" y="-160" width="160" height="20" as="geometry" />
        </mxCell>
        <mxCell id="NAQCBL6RXrsDhcxio9aU-48" value="" style="endArrow=classic;html=1;" parent="1" edge="1">
          <mxGeometry width="50" height="50" relative="1" as="geometry">
            <mxPoint x="280" y="26" as="sourcePoint" />
            <mxPoint x="400" y="-46" as="targetPoint" />
          </mxGeometry>
        </mxCell>
        <mxCell id="NAQCBL6RXrsDhcxio9aU-49" value="Add OnPremise VM to &lt;br&gt;stop Queue" style="text;html=1;align=center;verticalAlign=middle;resizable=0;points=[];autosize=1;strokeColor=none;" parent="1" vertex="1">
          <mxGeometry x="235" y="-65" width="130" height="30" as="geometry" />
        </mxCell>
        <mxCell id="NAQCBL6RXrsDhcxio9aU-50" value="Add OnPremise VM to start Queue" style="text;html=1;align=center;verticalAlign=middle;resizable=0;points=[];autosize=1;strokeColor=none;" parent="1" vertex="1">
          <mxGeometry x="200" y="490" width="200" height="20" as="geometry" />
        </mxCell>
        <mxCell id="NAQCBL6RXrsDhcxio9aU-51" value="" style="endArrow=classic;html=1;" parent="1" source="NAQCBL6RXrsDhcxio9aU-14" edge="1">
          <mxGeometry width="50" height="50" relative="1" as="geometry">
            <mxPoint x="770" y="530" as="sourcePoint" />
            <mxPoint x="660" y="525" as="targetPoint" />
          </mxGeometry>
        </mxCell>
        <mxCell id="NAQCBL6RXrsDhcxio9aU-52" value="AWS Lambda" style="outlineConnect=0;fontColor=#232F3E;gradientColor=none;strokeColor=#ffffff;fillColor=#232F3E;dashed=0;verticalLabelPosition=middle;verticalAlign=bottom;align=center;html=1;whiteSpace=wrap;fontSize=10;fontStyle=1;spacing=3;shape=mxgraph.aws4.productIcon;prIcon=mxgraph.aws4.lambda;" parent="1" vertex="1">
          <mxGeometry x="660" y="480" width="80" height="100" as="geometry" />
        </mxCell>
        <mxCell id="NAQCBL6RXrsDhcxio9aU-53" value="Triggers" style="text;html=1;align=center;verticalAlign=middle;resizable=0;points=[];autosize=1;strokeColor=none;" parent="1" vertex="1">
          <mxGeometry x="510" y="500" width="60" height="20" as="geometry" />
        </mxCell>
        <mxCell id="NAQCBL6RXrsDhcxio9aU-54" value="AWS Lambda" style="outlineConnect=0;fontColor=#232F3E;gradientColor=none;strokeColor=#ffffff;fillColor=#232F3E;dashed=0;verticalLabelPosition=middle;verticalAlign=bottom;align=center;html=1;whiteSpace=wrap;fontSize=10;fontStyle=1;spacing=3;shape=mxgraph.aws4.productIcon;prIcon=mxgraph.aws4.lambda;" parent="1" vertex="1">
          <mxGeometry x="600" y="-120" width="80" height="100" as="geometry" />
        </mxCell>
        <mxCell id="NAQCBL6RXrsDhcxio9aU-55" value="" style="endArrow=classic;html=1;entryX=-0.029;entryY=0.5;entryDx=0;entryDy=0;entryPerimeter=0;" parent="1" target="NAQCBL6RXrsDhcxio9aU-54" edge="1">
          <mxGeometry width="50" height="50" relative="1" as="geometry">
            <mxPoint x="480" y="-70" as="sourcePoint" />
            <mxPoint x="555" y="-120" as="targetPoint" />
          </mxGeometry>
        </mxCell>
        <mxCell id="NAQCBL6RXrsDhcxio9aU-56" value="Triggers" style="text;html=1;align=center;verticalAlign=middle;resizable=0;points=[];autosize=1;strokeColor=none;" parent="1" vertex="1">
          <mxGeometry x="500" y="-100" width="60" height="20" as="geometry" />
        </mxCell>
        <mxCell id="NAQCBL6RXrsDhcxio9aU-57" value="" style="endArrow=classic;html=1;" parent="1" target="NAQCBL6RXrsDhcxio9aU-17" edge="1">
          <mxGeometry width="50" height="50" relative="1" as="geometry">
            <mxPoint x="750" y="525" as="sourcePoint" />
            <mxPoint x="800" y="475" as="targetPoint" />
            <Array as="points">
              <mxPoint x="970" y="525" />
            </Array>
          </mxGeometry>
        </mxCell>
        <mxCell id="NAQCBL6RXrsDhcxio9aU-58" value="Start API Call" style="text;html=1;align=center;verticalAlign=middle;resizable=0;points=[];autosize=1;strokeColor=none;" parent="1" vertex="1">
          <mxGeometry x="795" y="480" width="90" height="20" as="geometry" />
        </mxCell>
        <mxCell id="NAQCBL6RXrsDhcxio9aU-59" value="" style="endArrow=classic;html=1;entryX=0.563;entryY=-0.036;entryDx=0;entryDy=0;entryPerimeter=0;" parent="1" source="NAQCBL6RXrsDhcxio9aU-54" target="NAQCBL6RXrsDhcxio9aU-17" edge="1">
          <mxGeometry width="50" height="50" relative="1" as="geometry">
            <mxPoint x="730" y="-70" as="sourcePoint" />
            <mxPoint x="795" y="-130" as="targetPoint" />
            <Array as="points">
              <mxPoint x="940" y="-80" />
            </Array>
          </mxGeometry>
        </mxCell>
        <mxCell id="NAQCBL6RXrsDhcxio9aU-60" value="Stop" style="text;html=1;align=center;verticalAlign=middle;resizable=0;points=[];autosize=1;strokeColor=none;" parent="1" vertex="1">
          <mxGeometry x="750" y="-120" width="40" height="20" as="geometry" />
        </mxCell>
        <mxCell id="NAQCBL6RXrsDhcxio9aU-61" value="" style="html=1;dashed=0;whitespace=wrap;fillColor=#2875E2;strokeColor=#ffffff;points=[[0.005,0.63,0],[0.1,0.2,0],[0.9,0.2,0],[0.5,0,0],[0.995,0.63,0],[0.72,0.99,0],[0.5,1,0],[0.28,0.99,0]];shape=mxgraph.kubernetes.icon;prIcon=api" parent="1" vertex="1">
          <mxGeometry x="1050" y="68.83" width="180" height="48" as="geometry" />
        </mxCell>
        <mxCell id="NAQCBL6RXrsDhcxio9aU-62" value="Events Based on cron" style="text;html=1;align=center;verticalAlign=middle;resizable=0;points=[];autosize=1;strokeColor=none;" parent="1" vertex="1">
          <mxGeometry y="150" width="130" height="20" as="geometry" />
        </mxCell>
        <mxCell id="8IYEdcZnMjfzV6KePrb9-1" value="Amazon SNS" style="outlineConnect=0;fontColor=#232F3E;gradientColor=none;strokeColor=#ffffff;fillColor=#232F3E;dashed=0;verticalLabelPosition=middle;verticalAlign=bottom;align=center;html=1;whiteSpace=wrap;fontSize=10;fontStyle=1;spacing=3;shape=mxgraph.aws4.productIcon;prIcon=mxgraph.aws4.sns;" parent="1" vertex="1">
          <mxGeometry x="400" y="-110" width="80" height="100" as="geometry" />
        </mxCell>
        <mxCell id="8IYEdcZnMjfzV6KePrb9-2" value="Amazon SNS" style="outlineConnect=0;fontColor=#232F3E;gradientColor=none;strokeColor=#ffffff;fillColor=#232F3E;dashed=0;verticalLabelPosition=middle;verticalAlign=bottom;align=center;html=1;whiteSpace=wrap;fontSize=10;fontStyle=1;spacing=3;shape=mxgraph.aws4.productIcon;prIcon=mxgraph.aws4.sns;" parent="1" vertex="1">
          <mxGeometry x="400" y="60" width="80" height="100" as="geometry" />
        </mxCell>
        <mxCell id="IIqmKMWHmWsJ5HKhqk-2-1" value="" style="endArrow=classic;html=1;entryX=0.363;entryY=0.667;entryDx=0;entryDy=0;entryPerimeter=0;" parent="1" target="NAQCBL6RXrsDhcxio9aU-61" edge="1">
          <mxGeometry width="50" height="50" relative="1" as="geometry">
            <mxPoint x="980" y="163" as="sourcePoint" />
            <mxPoint x="1030" y="113" as="targetPoint" />
          </mxGeometry>
        </mxCell>
        <mxCell id="QvIXClZ7UeoRvHjMC2Aw-1" value="" style="shape=image;verticalLabelPosition=bottom;labelBackgroundColor=#ffffff;verticalAlign=top;aspect=fixed;imageAspect=0;image=data:image/png,iVBORw0KGgoAAAANSUhEUgAAAVUAAACcCAYAAADPnDjmAAAgAElEQVR4Ae2deZQdRdnGiRL2QEjIAonsIiFh31V2wiJEBAREBVkExA2IsinIJkJAZQdBkU0JBpegIrIlLCqEHQwgM5ONJGRmkkxmDef7jud7v/PrnPLUdLr7dt9bd+be+PzRp/v2vbe66q2nnnq3ql7tww8/NB2SgTAgDAgDYTCwmgQZRpCSo+QoDAgDYECkKk1dloowIAwExIBINaAwpalIUxEGhAGRqkhVWoowIAwExIBINaAwpaVISxEGhAGRqkhVWoowIAwExIBINaAwpaVISxEGhAGRqkhVWoowIAwExIBINaAwpaVISxEGhAGRqkhVWoowIAwExIBINaAwpaVISxEGhAGRqkhVWoowIAwExIBINaAwpaVISxEGhAGRqkhVWoowIAwExIBINaAwpaVISxEGhAGRqkhVWoowIAwExIBINaAwpaVISxEGhAGRqkhVWoowIAwExIBINaAwpaVISxEGhAGRqkhVWoowIAwExIBINaAwpaVISxEGhAGRqkhVWoowIAwExIBINaAwpaVISxEGhAGRqkhVWoowIAwExIBINaAwpaVISxEGhAGRqkhVWoowIAwExIBINaAwpaVISxEGhAGRqkhVWoowIAwExIBINaAwpaVISxEGhAGRqkhVWoowIAwExIBINaAwpaVISxEGhAGRqkhVWoowIAwExIBINaAwpaVISxEGhAGRqkhVWoowIAwExIBINaAwpaVISxEGhAGRqkhVWoowIAwExIBINaAwpaVISxEGhAGRqkhVWoowIAwExIBINaAwpaVISxEGhAGRqkhVWoowIAwExIBINaAwpaVISxEGhAGRqkhVWoowIAwExIBINaAwpaVISxEGhAGRqkhVWoowIAwExIBINaAwpaVISxEGhAGRqkhVWoowIAwExIBINaAwpaVISxEGhAGRqkhVWoowIAwExIBINaAwpaVISxEGhAGRqkhVWoowIAwExIBINaAwpaVISxEGhAGRqkhVWoowIAwExIBINaAwpaVISxEGhAGRqkhVWoowIAwExIBINaAwpaVISxEGhAGRqkhVWoowIAwExIBINaAwpaVISxEGhAGRqkhVWoowIAwExIBINaAwpaVISxEGhAGRqkhVWoowIAwExIBINaAwpaVISxEGhAGRqkhVWoowIAwExIBINaAwpaVISxEGhAGRqkhVWoowIAwExIBINaAwpaV8aMuXL//PIXlIa/tvxIBIVaQaVEvp6emxrq4u4/zfOKDUZk0kIlWRalDy6+7utvb2dps2bZo9/fTTIlfhKyi+6mHS6lNSXd7TY8vb2627pdm6m5utu6WlakdPa6v1tLUZz6xGR3R2dtqSJUusubk582htbbXFixfbsmXLjP9gHldaH7TAjo6OqFz/+S0tLdE9nlPJMyDGtrY2o+7x8rmPJppWPv+lrT/60Y/soosusnfffTeSU9rvQ93Pkgn9lFVn6kC/LF261JCh3+a0aydr/kNf0O4QfZskD8rNg7W0umbdp/5JzyznHvVEFuDm/ffft4aGBnvrrbfspZdesn/84x/2t7/9zf7+97/bjBkz7I033rB//etfNnfu3Eje/K+IdcNvGVdJbSt3nFF/FIK0ct2zSmGpT0m1Z9ky65o7x9qee9banplubc8/V7Vj2QsvWMfMmba8QoJJA9eCBQvs9ddft+nTp0caGVpZ/Hj22WcjML3yyiv23nvvRQAoApy0Z9Px8+fPj8DqP/O5554znrVo0aKKBgoDGMC/8MILvdrEgHjnnXeiQZNWN9oHqL/85S/bzjvvbD/84Q8jOaX9PtR9iJyBzICNy+TVV1+NZJ/1LAbUzJkzDRn6/0+6ps8hCMiC//BcyAlizXpGud9RLm1Iqkul9/75z38GqzN9z7igDyZPnmzXXnutfe1rX7PDDz/c9thjD9txxx0jTBx88MH2la98xS677DL75S9/aYwT/gex5pURv0X+fvufeOKJ6PPChQvL6gvIcvbs2fbyyy/3Ktc9g/KxwCDXrHr2Kaku7+qyzpkzbdEVl9uC0061+cceW73juONs0YUXWsdrrxlaa5YQyvnuxRdftBtvvNGOP/54+9znPpd4HHPMMXbcccfZF77whQhEZ555pn3zm9+0n/70p/anP/0pIloIrOjz6VRm/ksuuaTXc08//XT78Y9/XDGJzZkzx6ZMmWLnnntur/Kp+69//etIA0mrMwMLcCKXwYMH22677WbXXXddBNQQE0racz/44AN7/vnn7YILLuhV569+9avR89GY0v7LfeqG7LL60/Xz0UcfbZ///OfthBNOiCYP5H722WfbxRdfbLfcckvUt2+++WZEtKW0mqw6ue+YRK+88spe7XJ1qfQMht1zyjlD+E1NTfaXv/wlkjMYQYaHHHJIRKTbbLONDR8+3NZff31bZ511bN1117WNNtrIttxyy4hgDzjgAGOcnHXWWdH/H3nkEWtsbIysnaz6MAaQt9/+o446KuoPJn9klvX/+HdYHpDp9773vWi8+uW666uuuiqaMNBk4//3P/cpqfLgzrfftoXnnWuzx461hgEDrGHgQGtYowrHwNVt9nZjrOXGG6zjjTeCR6T//Oc/GwN27bXXttVWW63QscMOO9hpp51md9xxRzTzzZo1q5D5iGY0depUO/DAA3s9d/To0RF5o0n5nVz0+u2337brr78+Ar3ftjFjxkSa52uvvZZavk+q7r8HHXSQ/eQnP4m0ANwHReuT5/doGL/97W9t77337iWTj33sY3biiSdGhJtVDvX+0pe+FA16V++i5w033DCaROhb5MfEiazQnNCEObLqkPYdWjDaXtH65Pk9GmPac9Pu0w7IlIkMy+jee++NSHHbbbctW36rr766jR071k455RS7++67I4Uja0JiDOy77742YMCAXnKBsH/3u9/ldjnR72ASq+yaa66JyD4ut4EDB9rHP/5x+/73vx9huBRh9zmp9ixZYh2vv24LTjwxItTGYUOtceSw8MewIda08XCbPWYba73n7kKklQYm//7jjz9uX//616PZN94JpT6vueaatsEGG0QzOIPlhhtuiPw4dLD/jLRrTH8GLGTlP2vTTTc1tGFM2LT/5rmPH/Tmm2+OCMIvH9BDFvjD0spJIlU0lE996lN25513Ru6DtP9Wch/t+g9/+IN98pOf7CWTzTff3E499dTIl5dVPvVGW0Kr8ttc5PojH/mIrbXWWlHfMrghdPrj97//fUUZEbVGqsgKbY2JHSsMMgXPa6yxxkokV0R+/B+NFu0WSynLzIZUcSNAeP4zipIqrirw/oMf/MCGDh26UnmUzf1bb701wi5EX2py7HNSXd7dbRBry2232dwDD7TGoUOsEQIcvXHYY5MRUbkN661j808/zZY89pjh080aWEW+w7/yjW98oyxS9UEwYsSIiBwJ7DDr56lDFqlCDJWSKv5UzFhMd7+u48aNi0gV0zatnkmkShmAff/994/IGlIuBcy08tPuQ6oM8iRSRXPEXZL2X+5TbybJkSNH9mqz3/6i12hREMSECRMitwS+Q4I4WfVI+q6WSBV3FX51/KVHHnmkbbbZZmVZa1myROO///77I004SR7cYwyMHz8+InK/rCKkysRAXAQ3wq677prY79zH7Od3+O3T6uPf73NSdQ9vf+UVa77mGmsaNcoah25oTaNGWNOokUGJtXH4UGtYa02btcMOtnDiROt87z3rac8nGFfPtHMaqa633nrRwNx6662NY6uttjK0JQYrs3ncXAEQ/AfT+mc/+1kEJAZ42nO5X4+k6oD/mc98xm677TabN29ebpBmycJ9V01SHTZsmG2xxRaRCej6lM9ookyKkEBcY3Lt5YwGO2jQoIhYn3nmmcK+1jRSBUs8H/+kw1vR8/nnn5+JNSdfJkGCQ5ALWtt2222XSELUCW0T+fAbglO77LJLRFoQFAcBTFxgYB4ZMi58eVWbVGkLJjw+VNxSmPb+87nGHcHYxeRHKy4SROs3UkVrXDZ9us3Zfz9r2nxTaxq5UXhSHTVyhVth8AY2Z/fdrXXyg9bZ2JgLRA5Maec0UgVAaIsAD5/pTTfdZFdffXUUBcUHlDT4ACKmz0knnRSZsKV8NvVMqkwgaKxoIqTcpMm36P1qkSp9g08WtwfuC/oU1wif0XDwqzNRQG7xgel/hliHDBkSBVIgpiIaaxqpghmCZLiPbr/99rKOJ598Mlcf4EMl/YlgHgoCLiy/fe6aOmEtoMni9sBXSYYB2i1mNmfaz+Tym9/8JpLhPvvs06usapMqJjx4YVzi7qHOrv7ujMnP2CW7I4/J7+O130iVSnTNnm0tt99m8w46wBrWXdsaBq1rDYPWC38MXN0ahw61eYcfZksmT7bu1paK81fTSJWoJ9F9gEOHYCozIwJeIud0JNFOzMKPfvSjvTqTe+ecc07kSwLEfkf51/VMqoAWIGO6/fznP48GWghXQLVIFTK84oorIvcBATz6lEwCAlBEmfGtP/zww1EmyIUXXhgFCnGToJm6Aeqf0eDw8RJMzBu0SyNV/LdgDbcR9SrnQAvzsZV0DRbxb06aNCnyjfvtcdf484mSM9E88MADUZ2wRqg7lpfrY874MZlUCC4iQ35P1B13Alp3NUkVmUPsl19+ue25556JfYRixPf0cV6T35dbv5JqT0e7dZH8e/HFNmfcuD45yAbgmfh2fUEUvU4jVdI6fvWrXyV2hvM3EqUm6orZEydWtFkGb9aAq3dSdQPx2GOP/Y/vrIh5ldRX1SJV+gftNE/uL7mWaGATJ040tK9Ro0Yl+huxVsjRzMqi8NuYRqoEAB988MFMrPjllHtNu8A7uaau79yZScdlWBBcgkiLPgdNENLGejn55JMjdwETFdkFaWUxBor4VCFzMIaSg5vtE5/4xEptweSH1CH4oia/X89+JdXly3tseVdnlGaFK6AvDtKruubP7xdSpWM5mKVJ+9h+++1X0mgIDv3xj3+MTC2/o/zrVYVU8b2R/UAmA6al38ai19UkVVw5EEupOkEOECBt+etf/xppbVgfjoDcGZcC/jq0ulJl8n0WqaLllZPrnOe57jekDx5xxBGGb9m1wZ3JO2WCQOMk1xMZuP/lPTMmnDaMuwByZQFBSFKlXmCEtKmNN9441eQvEuVPa1+/kqqrVE97e5SgHy0tZXlptY+lS6tm/mdpqq69nHEPYOqTjuIAyhmiZSZFW/V/71+vKqRKewE4MmMFDqBngPltzXtdTVIlEyIPqfp1dYsRvvvd70aal9/HXOOTJCuArISs1CHKLEWqpZLR/XoVuYbo8HvjH03yo4Jdkv3RziHUImWn/ZZyWH1Ibm8pay2vpko5ZLSwgGKvvfbqNd5cv2Dy4+YhM6VUTCOt7u5+TZCqq0w9ncsx//32oc3gqCdo4zqWM2YJ6VUsS/R/71/XK6liKnKgqflt5pqkb/JM0eLL0XZqjVTpL0iJ9LbvfOc7iRkCTKDkR2alqFFOf5Eq5IJJz6pAv7/oP1bLEVglXlAk6ObjuJLrPOY/EzT+W3zgd91110oKDG3C5Cc7hyg/EyG/r6Re/FekWuYuQpWSKqDAzCeB2Qcs6R2YU6xrTuvceiRVyJTVZxxJ0VYGKYEO1tRnmX1pMqlFUmVQQ4i4N2gbWrnf1wSaWAXH92nt4n5/kSpaI3s4kPvp15v+I6jEyicCOUweWfWvxnd5SJV6YWGQqYF/OyljgYwMsjmwDJnMy7WU/DaKVPuJVHGEE7CKLzXFB0eycdZCgHokVbQbAjQMxs9+9rOJ2qoLeOBvpo1FAF6LpOoGGubsfffdl+gGgKAIhGW5F/qDVHEpYC3tt99+KwVT8aPimyylYbv2V+OcRapYPLhU2EOAerKaz58U3DX5skT5ccVVavL7bRSp9hOp0uEkwcd9PCRMk5CcBdh6JFUHZPIcIRiWvBKocvf98xlnnGGPPvpotBQyryuglkmVqDN9RiodhOS3lYnm0ksvjcxof2D612mkitZ/zz33RJkJmK08p8iBbNO0TDZJwT2100479aovz2SBwWOPPZb6X7/u1brOIlWUFTIrwFnSIgVMflaCESgMZfL77RSp9hOpEt384he/GHWuP8gAMWkykK7fUf51PZMqvi02kCG/M+5PdnLAJGMXKCLBeVKZkE0tkyoaN2Yy2yDGl/4ywMlbxRXk97F/nUaquA9IUMd0BRPIgNzPvAfBIMr2n+WuwSe7oEGgrl84E5wiwIp2V8SScOWGOqeRKjmu5D8ja3JnkZFff67BF7tzkdcbyuT321WTpMpqq86mRlty//3WfOkl1nzdJGu5/vrgR/Oka6NdrJY8PCVawuoLptR1JT5VVpawAoZZNJ4kzmoUAJ0VTa1nUgXwpABhnmH2klKVFLhiQBAIgWwg1lIDuJZJFSwxeAn6sF2gP8jJg2XBCJNNGubSSBVCJgLutpRkLwr2L8hzELUHg2l7IpASxhaH8ZVi5FGTxgVxp9W3L+6nkSqaNCvc0hL7UVoIDqLJhjT5/TbXJqkuXmztL79kC049xRqHbWRNm462pi03s6attwh7bDrKZm23rc079mhbOnWqLe/oKDl4nfDSSBV/IXl2DAQGEmYZnQeR4DdjNccvfvGLaM/JuOOcxQBEWiGRrPX/9UyqpIuR4gJJIg/MV7Sf+OTiiIfBzybBpQIitU6q9CeTJZkArm2cmVDIAsCP7rAVP6eRql9O0WvcDmAVgow/j88PPfRQNOmzrNgvm/+UmvSTygt9L41U/br610xe1TT5/fbVJKlGO1m1tVnLXXfa3EPGW+MG61vj4A2saeNhYY+RGxmbrjRuONiar7rSOpuajI20fQGlXaeRKrmH7GaOrwZyJHWKQAXJ0URLiaayyQTR7riGxgyLJudIJ+3ZqwqpMungu0Mbja//dgOCyDP7nKLdZyW51wOpkvMJebq2uTNJ9d/61rdScVctUsXFQn5wEs7Y5wDTmawNV0/ObPXHqqlqaXlJdUm6V5RUMfnRzBmL1TD5/TrWJKm6Cra/9qotmnStNY3exBqHDo72R2WP1JAH2w42DlrH3j/maGu9/z7rSfExuTq5cxqpEr2HWNk1nwNNi13hMWUx8zBr48EKTBZmUfxABKjodPecpPOqQqq0jcAKvj18g6SXxScaBjLr5XktBxorxJrkCqh1UqXOZHzwFgSfpLiGvNieMKmvuVcNUiXrAKuIYJT/XOqJVs3Kong9+cwyUib9tACXX1Y1r4uSKr5WNp7BUqxmvSi7pkmVjlv67DM2e5cdVuxgxdaAgbcHbNpkhDWNGGqztt3GFpxxhnV/8EHioI13RBqpJgEx6x7rtyFitLGnnnoqV4evSqTq5ErwCtcAyzfjk46THxuWYHriUom7R+qBVLFc2ADFtcc/E7R0soifs0iVDAp2VCp6kDNLgIz0Nf95kCrjjlVkfv3cNf/xf99f10VJFUwxxvBrMzFXc1KoaVKlg9tffNHmjj/Imrba3JpGDqsaqeJimDd+vHXMnbvSgE0CTihSxXHOe5VYHpd3ZcqqSKporJj4+PLir0RxA5qgCVvd0f64+fnfSKoEqrB+kAlpaHkPtiskuIV1wGILH9+rKqnixsAFwMo9gnNZgWBfHuVc1zSpdrz1lrXcfJPNGrudNY4cHmmUK/yq4VwAzvyfu/de1nzFFdbV3Fw1TRVnOTMm5ixRVDoYzYW100WWx62KpAp4CUbhg2YFDEnnjkz9MyvOSOlhF33f91wPpJpm/oMJiC5tAKdpqgQ6yXFlRRZ5o3kPXtLHb9H6kbf/3Ho3/xljrJ5ipRqBXyYeHz8sA8cdR4wjy0fvy6TodU2S6vKenujVJ/g45x19lDVuuOGKtwOM5s0AAQ9cCbwfa4P17YMLzjd8uHlfaZ2mqWLOE4TiiEf38WMRlCAJnDw5lqKW2kwjqUNXVVJ1bUVjxf+F/xl5+oPCXbNWmxU/+J9xBdQ6qVJHgiRs6uHawBkf8iabbBJtF+jaHz+nkSqyIdDE5BL/T6WfccWQIRD3cdd6oIr4BDtqEYRjJVX8rQLInLHJJjGkVdEvTCSVysv/f02SKsGijjfftIXnnWOzxm1ns7YfZ7N23MFm7Rz42HF7m73bLjZn/MG2+KHJ1hOl+mS/ysQJL41Ud99992ineHaLxz/oDyBHqminbgPfUkEp9zz/vKqTKqY97hCitWnvDsInyBsWmJRwHdQ6qeLD47Xm5513Xi9MYJbyahGClH4f+9dZpMrevdXQuEgLZNlwPHm+1lOqMPFJWcTEx5XEhuH+GOQabRZNlokZ2Yb2r9Ymqbav2Lx66cNTViT+33Kztdx6S/jjlput9Y7bbfED91vnzJmpoPYB7q7TSPWwww6L1huzyS5ZAD4onfkPGbCiCDJw5RU5r+qkiixYe85KITS7NB8r+a1sKIwZ61Kz4uu82YGokhf/0WflbP0X708mT1bKYaX4g5zywQypdPH/uM9ZpEqeaTW2/nOb/RAA8+uLWwbtOO42cHXtqzNjIG3rP7f2nxQ28MG2fn4b3DVtgYCZkEPWuyZJNWQDq1VWGqn6+6myPyORfQaO60jO+AVJtWJVSjnECqDYODj+imo0C3xz+BsraTdpJ5jfcS2RWZ+1+1n7EmBOQSDHH398rza79vvJ/3nqyHJINsVI2kXf7XyFDxYfGTKpRVJFJpjo+D/RSp0sOOPzo8/Y6yBNHv1BqsgT3zWTkl9f9mwgsAoGQpvNae1Pup9FqmQ0oL0zttiYiJcbosHG/atMGBArPuaQgSuRahXX/tOhEGs8RQjtlWV0rCZi89wk0GTdYyUSywiZqX3AYxJDZnlf5pb2DPafpN5xAuAz26TxIre0/4YmVciIPTshcxZN+O3lGp8fuw2xRJPBFNdqa0FTJQDHBMr2f3EfMX5LFgRkTVT9QapMrCydZbWXL3N8ligF4C+02ZyGqaT7eUgVLCI7JlsyJOJbL0KyxDiwZB555JFUTCc9P+ueSLWKpIpZhkaL9oqm5YOTlUKsoCJvjlQqAJDVUf53rNaaNm2aHXroob3KZKknmgRl+r8veo05jYsivpkG6V+sCiOQlFZmaFLlOcgHHyu7CsW1Z2Tq2o0fG23dl3MtkCobd+BCiE9SDGqS0plcswKWIUh1xoz/sZNO+rdNmfK/qX3n9yn1wS8Zn6SQLUtXWcSQNbn6ZVXjOg+puueSA82bXXHHxfcyYFIjIwCtnPbmTWt0ZSedRapVJFUEjr+Gt6iiVcazAQAobgB2YyqSUoWpAvGxN6lPIO6aAA8meDnmGf+BsKkvbz11ZXImCMe2almbaVSDVB1wAT07JzEwfF+1X8f4dX+SKrKkr1i1xDJcTFC/fkSmmSSYeF0bk84hSHXChH/baquZbbbZ/2U+y38+defljPF9GcAxWjfBrFJ7MvjlhbwuQqo8l7YQIGZnNCazeFYD1g4brTB5l+OS89smUq0yqdJBLMPEYc6MGPev8u4f8lWLzJCUiQsgzW+JjxFttoj260ABuRNkwyxiFvdJAGKA2FgZ5H4fP1eTVNH88fURvEqK6vp1ddf9SaqYx1OnTo3MS1Y+xX16bAPInrqlXEAhSPWuu/7X1lrL7Iwz/p3ad/G+hDAJ5GBROXlyhpDQsHkjMGltRbAbf0a5n4uSKn2BgsOripiUycTx24SLjl3j2Dmt0qWsNUGqvPivu7XFupubq370sHa8wG5UaZ2eJ1Dl/xcfFOvX8Un5nck1vsJSe6j6ZUFcpB19+9vfjsgvPutiurNOvpx0LSLuBIbioKOeaK9oqQw2vz7+dTVJledglqKls9tTko81Ltv+IlXkhI8Xf92YMWNW6nMmLUgJ/3Wp6H0IUvX7KO81+KF+uF2StDv34j+wluW+yPs8fkeqIau8yObIShUrSqquDrwzjD054m4icMPYxKVGMJX2FLEeXfmc+5VUe72ieto0a3viCWt74vHqHE8+YW3TnrLOd9+xiFgL+DB9gbnroqTKwCDVAyd/nFgxs/G78r2/Ssg9K+3MAgL2X41rv/jBmJEBXl5ThgEEiCF3NOC4VoUJiM8yvjw0Xrdqk6p7HhkOvKmUCG7SBODINQSplnpFNWY+B4MQgoQQSDsifSoeHKFeZC2woo6gn2tP1rkUqWaRT1a5eb/DfYV/PR5koy1oeFhhrAosl4jADLLD+iKVi/xRgq2sQEurY7mkCn7xBbNAIGlhAG1iLLIPBxYZ/ZpWh7T7/UqqPR0r8lGbL77Y5owbZ7PHjq3aMWenHW3ufvtY6+QHrbuzsyxh+UIsSqqYHwR4CFjEN9DFzMacQvvCvM07QwJkksnjvloIkEHLFoSlTEvXJlwUaBwQajw3EaDh5CegUkr77StSxeScPn16JDPcKtQx6QhBqpiEWS4PBp4zL1n+ycYdpNLhQ00ifPqbV+Zkvd3B9QvnLFJlEqzGiir/+dQTYk2yDJggSKRnBRM+1ix/u1+mf039ySnFbYWrATOcxH0w6f/Ovy6XVMEn2GFpL5vYJGGGscj4YXzlVUr8uvUrqXbNarKWm26wufvvaw3rrm0Ng9a1hkHrhT8Grm5No0fZwrPPsrZpTwdZmlaUVBE6GgWzJHtnsv4fQPqdio8NZzkmUJ7O5HfuPTzxYALaLwC9+uqro3Xe+JPQoiBFRwIMVrSB559/PjJ5MEepl18ntGA0FF6QRt0BpQ+g+HVfkSrPZdABfHa6TzKxaUelpEofoTkx4bCsmAP3A8FFSB3NCjKBENCc0eYhGV+G/jVkS/9TRqkJysk2jVQJ1k2aNCmaiF3dip7zEDvaHWRJ6lf8nWqubbQZ7Q/FgMmX9kGUaK9gGVw43FEe9/me/sNvi3JAjjG4hdSQKXEBJ4P4uVxSpRwmQLRilA5yvXmea4c7o8USRC4nPbHfSJWlqJj6c/bYdcV6/pEbBd+BqnHUSGtkbf+woTbv4IOt/QgJ9x8AAAmBSURBVKUZ1rO4NbWj4h2X9bkcUnXlMQszs8c1TDqUCDvaTpbp48rhTA4nOw4xWOMkTXn4vQiEkWaFyUwyPY54fGUEnXA5kMwNoONuBP4PuNBQSEnxn5t23Zek6upA4jz+auoaD65VSqr4q1maiV+RpaQcBMpI5MenzetRsDySBqYboMgVlw8BEre0Nq81QhvTSJW2QuJMeK5uRc8E0pwcs84QEXsX4G8nuJqEXddeVjCR5wwxMk4IZpFWhr8e3EH83Od7/Jtxy63apOrayThgJRv1jWeTMJZIe5w4cWJEwEX6q99Ite3ZZ+2DCy6wpuHDrXHIYGsaNSI8qQ4fag1rrWlzDz3Umm+9dcVeqYHeUV4JqUKYdGZcuwSUdCTO8lLvgnfAwJQBtGx0kVQeWiazP5oceZKkjpDGA5AgS0wttIy0N5sCeOqSd1lif5AqpjkJ3mjabPbtBjfnSkmVMjDjCWxQFgfPYLMXNkKhv5Ii+34d+D9yxAfOJh5oqMjJ9WGpcxqpQvgEvKiPq1vRM6RR6vl8j5ZJgBKs4WMGN34b/WvyWKkTbhkWDzjMOdyR78x9vid/O47bviJV3A4QK0pFkmuDSQvNnPgEWnUeOfGbPidVIu9d779vzZMm2Zw994wIle33mkZvHPbYZIQ1sgH16FG26JJLrJ23P3Z25hZMKQFWQqoMKGZrlifGN12hIxmEF110US4TkbKYRQmM8HYBCDIeCPMBn+famfzsxI/vD1Mtr6naH6RKX0H6rIqBWP1FC5BMJWv/88gr7TeQHoTCah5yh9HWimg8DoNppJr23CL3kZd7Tp4zLiyIiF2eyJOGPCvFW7y+kCobxWT5sSsx//12Qqy4dnDJMEnGNXAmTfyr9957b6Sp+/9Nu+5TUo18KrwW99FH7f0JE6xh4MDINI9MdMz0kAdEvdXmNvfII6KX+qUJoNz7bIiCLy8eEXUvUysVPMC/SaIx5lu8DEBGVB9TC79SHkLDb4V5j1sh60V6cQDHPzNAiFgzc+OvhVDpt7xy6i9SdfUjx5bJBe2HDIYipIppjlYfl0nez24yYms5yoFwLrvsssjN4upXzrmWSJX608fgF9cBFhJWEK4XCCnJBZVHfkxAYA9CRQvGLZWV/4q1x6Qfd/dAgm7tfxFZ0xaCsUlBWjRv2onbjkkFV0hW2X1Lqu3t1v7MMzZv//2tacgQaxgwICLWhjUGWvBj4OpGxH/JlCnWNWtWphCyBJT2HeYmmmZ8lqZjIKNSpErHMFjQYJLAgUlJXmhe0xugs2oE85JoNeQaB1wecLPiBJ8h+XwAF0KvJ1IlAIH/l/ZjWhYhVaL28X0a8sjM/QafKX1G0IV186xMI/siixzS8OXfrzVSjZSj7u5owmd/C7RKND0m4jQ3kpNR2pksCTY3wUKDUAmsZikTYBMNEjL2yyyXVNF8GdPxpcSUzWSJm4WXdvKbrAAa/danpNrd2mrLnnvOFp55ps0/4YSqHgtOPNGaL73UunhDant7cFIluolvibQMXqDGwUAm2k7EME/0ng4AlJAgGqsrx51ZjwxBsHbZH2SlrjHPWBrJ/yEKsgDQfAEMpjH+QefzIuMAIiCVih3RIQPaVmo2TquDG3BsgII8XFucfFgEgWyKEHXas9LuIy8Cczzz05/+dKS5xl8bEv8vkxKujqR+8NvANbLidyeffHJk2iM3IsVopUS+yQogqo4MQ7STaDkBqLg84/Uq+pnySPGLy6LIZ9oIAYJ5loGCOcYEmQAEPyFagqjgDdzhi8aSwi3CCj2UEORIwArskYmCdVTKTcJvCBb6baY9uHrIzEBmRdvBhIycIc8kWUP4aMFZqV48s29JddEi63j3HWt/+WVbNmNGVQ928e9saMj9yukiHcBv8fdAXkTQ3cHAJboOyIqQEgABCJTD2R18pkxm0aL1c2Y4ux8x8xMkwSGPf8+RAmTAJECuIxsoY9pkaQdF6kCkl5xb1ya/LaHIplR9SJlh9yrcAaVIFfKjP53ss85MOgRs0ELRmELKLalNyIt0NuSZVa8i39EflJe1OU5SXbLugTmwzBjAv83iBhYG4FZxygfZEvQJExBLdMl0oQ7gjv9nle9/B+mSSeC3mfaAY+pQZPy5cvkP4xrfN3hx2HXPwHqD9LEI3X+Szn1KqgSK2F2/Z/Hi6h9LlkSvZAmhKSQJjk7FxMe0cwfCZoAxSxZ5LoByZcTPlJlX6/XryfM5MB2ZWdHeIA1IFkLATQAoiWpCDDw3JNkhG+rut8e1xdXNr281rgle4fsmvxL/ddYzqFO8P/26x6/pZ35P34SUW1IdXT/G5RmvU9HPlEcbkp5Zzj3qybhANg5zECY4A28Od0wQTEjkvkJi1KEoJiBgsO232cmH8UR5Rdvg6k99XFnx8rlfSvHoU1It2kj9/sPCwJDMessMLZ/oLqadZNNbNpJHdeQhUi1zlyoBsjqAlFwl13rHgEhVpCoNThgQBgJiQKQaUJj1PsOq/tIShYHKMSBSFalKSxEGhIGAGBCpBhSmZvnKZ3nJUDKsdwyIVEWq0lKEAWEgIAZEqgGFWe8zrOovLVEYqBwDIlWRqrQUYUAYCIgBkWpAYWqWr3yWlwwlw3rHgEhVpCotRRgQBgJiQKQaUJj1PsOq/tIShYHKMSBSFalKSxEGhIGAGBCpBhSmZvnKZ3nJUDKsdwyIVEWq0lKEAWEgIAZEqgGFWe8zrOovLVEYqBwDIlWRqrQUYUAYCIgBkWpAYWqWr3yWlwwlw3rHgEhVpCotRRgQBgJiQKQaUJj1PsOq/tIShYHKMSBSFalKSxEGhIGAGBCpBhSmZvnKZ3nJUDKsdwyIVEWq0lKEAWEgIAZEqgGFWe8zrOovLVEYqBwDIlWRqrQUYUAYCIgBkWpAYWqWr3yWlwwlw3rHgEhVpCotRRgQBgJiQKQaUJj1PsOq/tIShYHKMSBSFalKSxEGhIGAGBCpBhSmZvnKZ3nJUDKsdwyIVEWq0lKEAWEgIAZEqgGFWe8zrOovLVEYqBwDIlWRqrQUYUAYCIgBkWpAYWqWr3yWlwwlw3rHgEhVpCotRRgQBgJiQKQaUJj1PsOq/tIShYHKMSBSFalKSxEGhIGAGBCpBhSmZvnKZ3nJUDKsdwyIVEWq0lKEAWEgIAZEqgGFWe8zrOovLVEYqBwDIlWRqrQUYUAYCIgBkWpAYWqWr3yWlwwlw3rHgEhVpCotRRgQBgJiQKQaUJj1PsOq/tIShYHKMfD/UHMHC2vQ99oAAAAASUVORK5CYII=;" vertex="1" parent="1">
          <mxGeometry x="1150" y="68.83" width="90" height="41.17" as="geometry" />
        </mxCell>
      </root>
    </mxGraphModel>
  </diagram>
</mxfile>
